<svg width="18" height="18" viewBox="0 0 18 18" fill="none" xmlns="http://www.w3.org/2000/svg">
<path d="M14 2.26071L11.8248 2.26071C11.5412 2.26071 11.2593 2.22696 10.9843 2.15947L8.68593 1.60094C8.18722 1.47945 7.6677 1.46763 7.16378 1.5655L4.62253 2.05991C3.95123 2.19068 3.33369 2.51213 2.84973 2.98292L1.05177 4.73191C0.538315 5.23054 0.538315 6.03965 1.05177 6.53912C1.51405 6.98881 2.24607 7.03943 2.76907 6.65808L4.86451 5.12929C5.16461 4.90993 5.52975 4.79181 5.9053 4.79181L7.92876 4.79181L6.64079 4.79187C5.91484 4.79187 5.3268 5.3639 5.3268 6.07008L5.3268 6.32572C5.3268 6.91209 5.73704 7.42337 6.32161 7.56511L8.30952 8.04855C8.63303 8.12702 8.96434 8.16667 9.29739 8.16667C10.1014 8.16667 11.5568 7.50099 11.5568 7.50099L14 6.47927M17.3333 6.83334L17.3333 2.00001C17.3333 1.5333 17.3333 1.29994 17.2425 1.12168C17.1626 0.964879 17.0351 0.837396 16.8783 0.757501C16.7001 0.666673 16.4667 0.666674 16 0.666673L15.3333 0.666673C14.8666 0.666673 14.6333 0.666672 14.455 0.7575C14.2982 0.837394 14.1707 0.964879 14.0908 1.12168C14 1.29994 14 1.53329 14 2.00001L14 6.83334C14 7.30005 14 7.5334 14.0908 7.71166C14.1707 7.86847 14.2982 7.99595 14.455 8.07584C14.6333 8.16667 14.8666 8.16667 15.3333 8.16667L16 8.16667C16.4667 8.16667 16.7001 8.16667 16.8783 8.07584C17.0351 7.99595 17.1626 7.86847 17.2425 7.71166C17.3333 7.5334 17.3333 7.30005 17.3333 6.83334ZM4.67387 16.0065C5.17121 17.0472 6.31786 17.5985 7.43298 17.0664C8.5481 16.5342 9.02318 15.2722 8.5563 14.1643C8.26775 13.4796 7.44106 12.15 6.8516 11.2341C6.63381 10.8957 6.52491 10.7265 6.36585 10.6276C6.22942 10.5427 6.05862 10.4969 5.89802 10.5022C5.71078 10.5084 5.53187 10.6005 5.17405 10.7846C4.20564 11.2831 2.82489 12.0212 2.23266 12.4699C1.27439 13.1959 1.03703 14.5304 1.75446 15.5448C2.47188 16.5593 3.7228 16.6591 4.67387 16.0065Z" stroke="white" stroke-linecap="round" stroke-linejoin="round"/>
</svg>
