<svg width="24" height="24" viewBox="0 0 24 24" fill="none" xmlns="http://www.w3.org/2000/svg">
<path d="M11.2748 2.44175C11.4878 1.58956 11.5943 1.16347 11.7637 1.06418C11.9096 0.978608 12.0904 0.978608 12.2363 1.06418C12.4057 1.16347 12.5122 1.58956 12.7252 2.44175L13.6216 6.02706C13.938 7.29274 14.0962 7.92557 14.4257 8.44052C14.7172 8.89602 15.104 9.28284 15.5595 9.5743C16.0744 9.90381 16.7073 10.062 17.9729 10.3784L21.5583 11.2748C22.4104 11.4878 22.8365 11.5943 22.9358 11.7637C23.0214 11.9096 23.0214 12.0904 22.9358 12.2363C22.8365 12.4057 22.4104 12.5122 21.5583 12.7252L17.9729 13.6216C16.7073 13.938 16.0744 14.0962 15.5595 14.4257C15.104 14.7172 14.7172 15.104 14.4257 15.5595C14.0962 16.0744 13.938 16.7073 13.6216 17.9729L12.7252 21.5583C12.5122 22.4104 12.4057 22.8365 12.2363 22.9358C12.0904 23.0214 11.9096 23.0214 11.7637 22.9358C11.5943 22.8365 11.4878 22.4104 11.2748 21.5583L10.3784 17.9729C10.062 16.7073 9.90381 16.0744 9.57431 15.5595C9.28284 15.104 8.89602 14.7172 8.44052 14.4257C7.92557 14.0962 7.29274 13.938 6.02706 13.6216L2.44175 12.7252C1.58956 12.5122 1.16347 12.4057 1.06418 12.2363C0.978608 12.0904 0.978608 11.9096 1.06418 11.7637C1.16347 11.5943 1.58956 11.4878 2.44175 11.2748L6.02706 10.3784C7.29274 10.062 7.92557 9.90381 8.44052 9.5743C8.89602 9.28284 9.28284 8.89602 9.5743 8.44052C9.90381 7.92557 10.062 7.29273 10.3784 6.02706L11.2748 2.44175Z" stroke="white" stroke-linecap="round" stroke-linejoin="round"/>
</svg>
