<svg width="203" height="40" viewBox="0 0 203 40" fill="none" xmlns="http://www.w3.org/2000/svg">
<g filter="url(#filter0_b_1_1183)">
<rect x="1" y="1" width="201" height="38" rx="19" fill="black" fill-opacity="0.4"/>
<path d="M21.312 14.824C21.0133 14.824 20.7093 14.8507 20.4 14.904C20.1013 14.9573 19.8293 15.0533 19.584 15.192C19.3387 15.32 19.136 15.5013 18.976 15.736C18.8267 15.96 18.752 16.248 18.752 16.6C18.752 17.0267 18.864 17.3733 19.088 17.64C19.312 17.896 19.584 18.0933 19.904 18.232C20.16 18.3387 20.432 18.4293 20.72 18.504C21.008 18.5787 21.3013 18.648 21.6 18.712C21.9093 18.776 22.208 18.84 22.496 18.904C22.7947 18.968 23.0827 19.048 23.36 19.144C24.0107 19.368 24.528 19.688 24.912 20.104C25.3067 20.52 25.504 21.0693 25.504 21.752C25.504 22.392 25.392 22.92 25.168 23.336C24.9547 23.752 24.6613 24.0933 24.288 24.36C23.9253 24.6267 23.4987 24.824 23.008 24.952C22.528 25.0693 22.016 25.128 21.472 25.128C20.928 25.128 20.4053 25.0747 19.904 24.968C19.4133 24.8613 18.9653 24.6853 18.56 24.44C18.1547 24.1947 17.808 23.8747 17.52 23.48C17.232 23.0853 17.0293 22.6053 16.912 22.04H18.368C18.4747 22.4027 18.64 22.7013 18.864 22.936C19.088 23.1707 19.344 23.3573 19.632 23.496C19.92 23.6347 20.2293 23.7307 20.56 23.784C20.9013 23.8373 21.2373 23.864 21.568 23.864C21.888 23.864 22.1973 23.832 22.496 23.768C22.8053 23.6933 23.0773 23.5813 23.312 23.432C23.5467 23.2827 23.7333 23.0907 23.872 22.856C24.0107 22.6213 24.08 22.3387 24.08 22.008C24.08 21.5067 23.9467 21.1333 23.68 20.888C23.4133 20.6427 23.056 20.456 22.608 20.328C22.3093 20.232 21.9947 20.152 21.664 20.088C21.3333 20.024 21.0027 19.9547 20.672 19.88C20.3413 19.8053 20.016 19.72 19.696 19.624C19.376 19.5173 19.0827 19.3947 18.816 19.256C18.3893 19.0533 18.032 18.744 17.744 18.328C17.456 17.9013 17.312 17.368 17.312 16.728C17.312 16.1307 17.4293 15.6293 17.664 15.224C17.8987 14.8187 18.2027 14.4933 18.576 14.248C18.9493 14.0027 19.3653 13.8267 19.824 13.72C20.2933 13.6133 20.7893 13.56 21.312 13.56C21.7387 13.5707 22.1227 13.608 22.464 13.672C22.816 13.7253 23.1467 13.8267 23.456 13.976C23.936 14.1893 24.336 14.5093 24.656 14.936C24.976 15.3627 25.152 15.912 25.184 16.584H23.824C23.7813 16.2533 23.68 15.976 23.52 15.752C23.3707 15.528 23.184 15.3467 22.96 15.208C22.736 15.0693 22.48 14.9733 22.192 14.92C21.9147 14.856 21.6213 14.824 21.312 14.824ZM28.5655 21.288C28.5975 21.6613 28.6722 22.008 28.7895 22.328C28.9175 22.6373 29.0882 22.9093 29.3015 23.144C29.5148 23.3787 29.7762 23.5653 30.0855 23.704C30.4055 23.832 30.7735 23.896 31.1895 23.896C31.3922 23.896 31.6002 23.88 31.8135 23.848C32.0375 23.8053 32.2455 23.7413 32.4375 23.656C32.6295 23.56 32.8002 23.4373 32.9495 23.288C33.0988 23.1387 33.2108 22.9573 33.2855 22.744H34.6775C34.5815 23.1493 34.4162 23.5013 34.1815 23.8C33.9575 24.0987 33.6855 24.344 33.3655 24.536C33.0562 24.728 32.7095 24.872 32.3255 24.968C31.9415 25.0533 31.5522 25.096 31.1575 25.096C30.4855 25.096 29.8988 24.9893 29.3975 24.776C28.9068 24.5627 28.4962 24.2693 28.1655 23.896C27.8348 23.512 27.5895 23.0587 27.4295 22.536C27.2695 22.0027 27.1895 21.4213 27.1895 20.792C27.1895 20.1627 27.2748 19.5867 27.4455 19.064C27.6268 18.5307 27.8828 18.072 28.2135 17.688C28.5442 17.304 28.9495 17.0053 29.4295 16.792C29.9095 16.5787 30.4802 16.472 31.1415 16.472C31.8135 16.472 32.3948 16.6053 32.8855 16.872C33.3762 17.1387 33.7708 17.4907 34.0695 17.928C34.3682 18.3547 34.5762 18.8187 34.6935 19.32C34.8215 19.8213 34.8748 20.2853 34.8535 20.712C34.8535 20.808 34.8482 20.904 34.8375 21C34.8375 21.096 34.8322 21.192 34.8215 21.288H28.5655ZM33.4775 20.104C33.4562 19.3893 33.2322 18.808 32.8055 18.36C32.3788 17.912 31.8082 17.688 31.0935 17.688C30.6988 17.688 30.3522 17.752 30.0535 17.88C29.7548 18.008 29.5042 18.184 29.3015 18.408C29.0988 18.632 28.9388 18.8933 28.8215 19.192C28.7042 19.48 28.6295 19.784 28.5975 20.104H33.4775ZM42.2334 23.928C42.052 24.1733 41.844 24.3707 41.6094 24.52C41.3747 24.6693 41.1294 24.7867 40.8734 24.872C40.628 24.9573 40.3774 25.016 40.1214 25.048C39.876 25.08 39.6307 25.096 39.3854 25.096C38.9907 25.096 38.6174 25.048 38.2654 24.952C37.9134 24.856 37.5934 24.7013 37.3054 24.488C37.028 24.2747 36.804 24.008 36.6334 23.688C36.4734 23.368 36.3934 23.0053 36.3934 22.6C36.3934 22.12 36.4787 21.72 36.6494 21.4C36.8307 21.0693 37.0707 20.8027 37.3694 20.6C37.668 20.3973 38.0094 20.2587 38.3934 20.184C38.788 20.0987 39.204 20.056 39.6414 20.056H42.1214C42.1214 19.3413 41.9667 18.776 41.6574 18.36C41.348 17.9333 40.8254 17.7093 40.0894 17.688C39.6414 17.688 39.2467 17.7627 38.9054 17.912C38.564 18.0613 38.3294 18.3067 38.2014 18.648H36.7454C36.82 18.264 36.9694 17.9387 37.1934 17.672C37.4174 17.3947 37.684 17.1707 37.9934 17C38.3027 16.8187 38.6387 16.6853 39.0014 16.6C39.364 16.5147 39.7267 16.472 40.0894 16.472C40.7187 16.472 41.2467 16.5787 41.6734 16.792C42.1107 16.9947 42.4627 17.2667 42.7294 17.608C42.996 17.9387 43.1827 18.344 43.2894 18.824C43.396 19.304 43.4494 19.8427 43.4494 20.44V25H42.3134L42.2334 23.928ZM40.6334 21.192C40.3774 21.192 40.0787 21.1973 39.7374 21.208C39.4067 21.208 39.0867 21.24 38.7774 21.304C38.468 21.368 38.2174 21.5013 38.0254 21.704C37.844 21.9067 37.7534 22.1733 37.7534 22.504C37.7534 22.7493 37.8014 22.9573 37.8974 23.128C37.9934 23.2987 38.1214 23.4427 38.2814 23.56C38.452 23.6773 38.644 23.7627 38.8574 23.816C39.0707 23.8693 39.2894 23.896 39.5134 23.896C40.3134 23.896 40.9427 23.704 41.4014 23.32C41.8707 22.9253 42.1107 22.3547 42.1214 21.608V21.192H40.6334ZM45.5564 25V16.568H46.8684L46.9324 17.88C47.2417 17.3893 47.6364 17.032 48.1164 16.808C48.5964 16.584 49.1404 16.472 49.7484 16.472H50.1804V17.752H49.6844C49.183 17.752 48.7564 17.8373 48.4044 18.008C48.0524 18.168 47.7644 18.392 47.5404 18.68C47.327 18.9573 47.167 19.288 47.0604 19.672C46.9644 20.056 46.9164 20.4613 46.9164 20.888V25H45.5564ZM54.9689 25.096C54.2969 25.096 53.7155 24.9893 53.2249 24.776C52.7342 24.5627 52.3289 24.264 52.0089 23.88C51.6889 23.496 51.4489 23.0427 51.2889 22.52C51.1289 21.9973 51.0489 21.4267 51.0489 20.808C51.0489 20.2107 51.1342 19.6507 51.3049 19.128C51.4755 18.5947 51.7262 18.136 52.0569 17.752C52.3875 17.3573 52.8035 17.048 53.3049 16.824C53.8062 16.5893 54.4142 16.472 55.1289 16.472C55.5555 16.472 55.9342 16.52 56.2649 16.616C56.5955 16.7013 56.9049 16.8453 57.1929 17.048C57.4915 17.24 57.7475 17.496 57.9609 17.816C58.1742 18.136 58.3289 18.5253 58.4249 18.984H57.0329C56.8729 18.5147 56.6169 18.1787 56.2649 17.976C55.9235 17.7733 55.5182 17.6773 55.0489 17.688C54.5902 17.688 54.1849 17.7787 53.8329 17.96C53.4915 18.1307 53.2142 18.36 53.0009 18.648C52.7982 18.936 52.6489 19.272 52.5529 19.656C52.4569 20.0293 52.4089 20.4133 52.4089 20.808C52.4089 21.224 52.4569 21.6187 52.5529 21.992C52.6595 22.3653 52.8142 22.696 53.0169 22.984C53.2302 23.2613 53.5022 23.4853 53.8329 23.656C54.1635 23.816 54.5582 23.896 55.0169 23.896C55.2409 23.896 55.4595 23.8747 55.6729 23.832C55.8969 23.7893 56.0995 23.72 56.2809 23.624C56.4729 23.5173 56.6382 23.3787 56.7769 23.208C56.9155 23.0373 57.0169 22.8293 57.0809 22.584H58.4889C58.4035 23.0213 58.2489 23.4 58.0249 23.72C57.8115 24.0293 57.5449 24.2907 57.2249 24.504C56.9049 24.7067 56.5529 24.856 56.1689 24.952C55.7849 25.048 55.3849 25.096 54.9689 25.096ZM60.2126 25V13.688H61.5726V17.864C61.7113 17.6507 61.8873 17.4533 62.1006 17.272C62.314 17.0907 62.538 16.9413 62.7726 16.824C63.0073 16.7067 63.2633 16.6213 63.5406 16.568C63.8286 16.504 64.106 16.472 64.3726 16.472C64.9806 16.472 65.4873 16.5733 65.8926 16.776C66.3086 16.968 66.6393 17.24 66.8846 17.592C67.1406 17.9333 67.3166 18.344 67.4126 18.824C67.5193 19.2933 67.5726 19.8053 67.5726 20.36V25H66.2126V20.776C66.2126 20.392 66.1913 20.0187 66.1486 19.656C66.106 19.2827 66.01 18.952 65.8606 18.664C65.7113 18.376 65.498 18.1413 65.2206 17.96C64.9433 17.768 64.5646 17.672 64.0846 17.672C63.69 17.672 63.322 17.7733 62.9806 17.976C62.65 18.168 62.3833 18.4133 62.1806 18.712C61.9353 19.0427 61.77 19.4107 61.6846 19.816C61.61 20.2213 61.5726 20.6373 61.5726 21.064V25H60.2126Z" fill="white"/>
<path d="M168 13V27" stroke="white" stroke-opacity="0.3"/>
<path d="M179.833 24.1666L188.167 15.8333M188.167 15.8333H179.833M188.167 15.8333V24.1666" stroke="white" stroke-width="2" stroke-linecap="square" stroke-linejoin="round"/>
<rect x="0.5" y="0.5" width="202" height="39" rx="19.5" stroke="white" stroke-opacity="0.7"/>
</g>
<defs>
<filter id="filter0_b_1_1183" x="-30" y="-30" width="263" height="100" filterUnits="userSpaceOnUse" color-interpolation-filters="sRGB">
<feFlood flood-opacity="0" result="BackgroundImageFix"/>
<feGaussianBlur in="BackgroundImageFix" stdDeviation="15"/>
<feComposite in2="SourceAlpha" operator="in" result="effect1_backgroundBlur_1_1183"/>
<feBlend mode="normal" in="SourceGraphic" in2="effect1_backgroundBlur_1_1183" result="shape"/>
</filter>
</defs>
</svg>
