<svg width="375" height="174" viewBox="0 0 375 174" fill="none" xmlns="http://www.w3.org/2000/svg">
<g filter="url(#filter0_d_12_251)">
<rect x="50" y="61" width="275" height="52" rx="26" fill="url(#paint0_linear_12_251)" shape-rendering="crispEdges"/>
<path d="M88.2239 74.5429C88.4519 73.6309 88.5659 73.1749 88.7471 73.0687C88.9033 72.9771 89.0968 72.9771 89.253 73.0687C89.4342 73.1749 89.5482 73.6309 89.7762 74.5429L90.7354 78.3798C91.074 79.7342 91.2433 80.4115 91.5959 80.9626C91.9079 81.45 92.3218 81.864 92.8093 82.1759C93.3604 82.5285 94.0376 82.6978 95.3921 83.0365L99.2289 83.9957C100.141 84.2237 100.597 84.3377 100.703 84.5189C100.795 84.675 100.795 84.8685 100.703 85.0247C100.597 85.2059 100.141 85.3199 99.2289 85.5479L95.3921 86.5071C94.0376 86.8457 93.3604 87.015 92.8093 87.3677C92.3218 87.6796 91.9079 88.0935 91.5959 88.581C91.2433 89.1321 91.074 89.8093 90.7354 91.1638L89.7762 95.0007C89.5482 95.9126 89.4342 96.3686 89.253 96.4749C89.0968 96.5665 88.9033 96.5665 88.7471 96.4749C88.5659 96.3686 88.4519 95.9126 88.2239 95.0007L87.2647 91.1638C86.9261 89.8093 86.7568 89.1321 86.4042 88.581C86.0923 88.0935 85.6783 87.6796 85.1908 87.3677C84.6398 87.015 83.9625 86.8457 82.608 86.5071L78.7712 85.5479C77.8592 85.3199 77.4032 85.2059 77.297 85.0247C77.2054 84.8685 77.2054 84.675 77.297 84.5189C77.4032 84.3377 77.8592 84.2237 78.7712 83.9957L82.608 83.0365C83.9625 82.6978 84.6398 82.5285 85.1908 82.1759C85.6783 81.864 86.0923 81.45 86.4042 80.9626C86.7568 80.4115 86.9261 79.7342 87.2647 78.3798L88.2239 74.5429Z" stroke="white" stroke-linecap="round" stroke-linejoin="round"/>
<path d="M76.6044 89.7864C76.7206 89.3216 76.7787 89.0892 76.8711 89.035C76.9507 88.9883 77.0493 88.9883 77.1289 89.035C77.2213 89.0892 77.2794 89.3216 77.3956 89.7864L77.8845 91.742C78.0571 92.4324 78.1434 92.7776 78.3231 93.0585C78.4821 93.3069 78.6931 93.5179 78.9415 93.6769C79.2224 93.8566 79.5676 93.9429 80.258 94.1155L82.2136 94.6044C82.6784 94.7206 82.9108 94.7787 82.965 94.8711C83.0117 94.9507 83.0117 95.0493 82.965 95.1289C82.9108 95.2213 82.6784 95.2794 82.2136 95.3956L80.258 95.8845C79.5676 96.0571 79.2224 96.1434 78.9415 96.3231C78.6931 96.4821 78.4821 96.6931 78.3231 96.9415C78.1434 97.2224 78.0571 97.5676 77.8845 98.258L77.3956 100.214C77.2794 100.678 77.2213 100.911 77.1289 100.965C77.0493 101.012 76.9507 101.012 76.8711 100.965C76.7787 100.911 76.7206 100.678 76.6044 100.214L76.1155 98.258C75.9429 97.5676 75.8566 97.2224 75.6769 96.9415C75.5179 96.6931 75.3069 96.4821 75.0585 96.3231C74.7776 96.1434 74.4324 96.0571 73.742 95.8845L71.7864 95.3956C71.3216 95.2794 71.0892 95.2213 71.035 95.1289C70.9883 95.0493 70.9883 94.9507 71.035 94.8711C71.0892 94.7787 71.3216 94.7206 71.7864 94.6044L73.742 94.1155C74.4324 93.9429 74.7776 93.8566 75.0585 93.6769C75.3069 93.5179 75.5179 93.3069 75.6769 93.0585C75.8566 92.7776 75.9429 92.4324 76.1155 91.742L76.6044 89.7864Z" fill="white"/>
<path d="M76.6044 89.7864C76.7206 89.3216 76.7787 89.0892 76.8711 89.035C76.9507 88.9883 77.0493 88.9883 77.1289 89.035C77.2213 89.0892 77.2794 89.3216 77.3956 89.7864L77.8845 91.742C78.0571 92.4324 78.1434 92.7776 78.3231 93.0585C78.4821 93.3069 78.6931 93.5179 78.9415 93.6769C79.2224 93.8566 79.5676 93.9429 80.258 94.1155L82.2136 94.6044C82.6784 94.7206 82.9108 94.7787 82.965 94.8711C83.0117 94.9507 83.0117 95.0493 82.965 95.1289C82.9108 95.2213 82.6784 95.2794 82.2136 95.3956L80.258 95.8845C79.5676 96.0571 79.2224 96.1434 78.9415 96.3231C78.6931 96.4821 78.4821 96.6931 78.3231 96.9415C78.1434 97.2224 78.0571 97.5676 77.8845 98.258L77.3956 100.214C77.2794 100.678 77.2213 100.911 77.1289 100.965C77.0493 101.012 76.9507 101.012 76.8711 100.965C76.7787 100.911 76.7206 100.678 76.6044 100.214L76.1155 98.258C75.9429 97.5676 75.8566 97.2224 75.6769 96.9415C75.5179 96.6931 75.3069 96.4821 75.0585 96.3231C74.7776 96.1434 74.4324 96.0571 73.742 95.8845L71.7864 95.3956C71.3216 95.2794 71.0892 95.2213 71.035 95.1289C70.9883 95.0493 70.9883 94.9507 71.035 94.8711C71.0892 94.7787 71.3216 94.7206 71.7864 94.6044L73.742 94.1155C74.4324 93.9429 74.7776 93.8566 75.0585 93.6769C75.3069 93.5179 75.5179 93.3069 75.6769 93.0585C75.8566 92.7776 75.9429 92.4324 76.1155 91.742L76.6044 89.7864Z" fill="white"/>
<path d="M73.8022 76.3932C73.8603 76.1608 73.8894 76.0446 73.9355 76.0175C73.9753 75.9942 74.0247 75.9942 74.0645 76.0175C74.1106 76.0446 74.1397 76.1608 74.1978 76.3932L74.4422 77.371C74.5285 77.7162 74.5717 77.8888 74.6616 78.0292C74.741 78.1535 74.8465 78.259 74.9708 78.3384C75.1112 78.4283 75.2838 78.4715 75.629 78.5578L76.6068 78.8022C76.8392 78.8603 76.9554 78.8894 76.9825 78.9355C77.0058 78.9753 77.0058 79.0247 76.9825 79.0645C76.9554 79.1106 76.8392 79.1397 76.6068 79.1978L75.629 79.4422C75.2838 79.5285 75.1112 79.5717 74.9708 79.6616C74.8465 79.741 74.741 79.8465 74.6616 79.9708C74.5717 80.1112 74.5285 80.2838 74.4422 80.629L74.1978 81.6068C74.1397 81.8392 74.1106 81.9554 74.0645 81.9825C74.0247 82.0058 73.9753 82.0058 73.9355 81.9825C73.8894 81.9554 73.8603 81.8392 73.8022 81.6068L73.5578 80.629C73.4715 80.2838 73.4283 80.1112 73.3384 79.9708C73.259 79.8465 73.1535 79.741 73.0292 79.6616C72.8888 79.5717 72.7162 79.5285 72.371 79.4422L71.3932 79.1978C71.1608 79.1397 71.0446 79.1106 71.0175 79.0645C70.9942 79.0247 70.9942 78.9753 71.0175 78.9355C71.0446 78.8894 71.1608 78.8603 71.3932 78.8022L72.371 78.5578C72.7162 78.4715 72.8888 78.4283 73.0292 78.3384C73.1535 78.259 73.259 78.1535 73.3384 78.0292C73.4283 77.8888 73.4715 77.7162 73.5578 77.371L73.8022 76.3932Z" fill="white"/>
<path d="M73.8022 76.3932C73.8603 76.1608 73.8894 76.0446 73.9355 76.0175C73.9753 75.9942 74.0247 75.9942 74.0645 76.0175C74.1106 76.0446 74.1397 76.1608 74.1978 76.3932L74.4422 77.371C74.5285 77.7162 74.5717 77.8888 74.6616 78.0292C74.741 78.1535 74.8465 78.259 74.9708 78.3384C75.1112 78.4283 75.2838 78.4715 75.629 78.5578L76.6068 78.8022C76.8392 78.8603 76.9554 78.8894 76.9825 78.9355C77.0058 78.9753 77.0058 79.0247 76.9825 79.0645C76.9554 79.1106 76.8392 79.1397 76.6068 79.1978L75.629 79.4422C75.2838 79.5285 75.1112 79.5717 74.9708 79.6616C74.8465 79.741 74.741 79.8465 74.6616 79.9708C74.5717 80.1112 74.5285 80.2838 74.4422 80.629L74.1978 81.6068C74.1397 81.8392 74.1106 81.9554 74.0645 81.9825C74.0247 82.0058 73.9753 82.0058 73.9355 81.9825C73.8894 81.9554 73.8603 81.8392 73.8022 81.6068L73.5578 80.629C73.4715 80.2838 73.4283 80.1112 73.3384 79.9708C73.259 79.8465 73.1535 79.741 73.0292 79.6616C72.8888 79.5717 72.7162 79.5285 72.371 79.4422L71.3932 79.1978C71.1608 79.1397 71.0446 79.1106 71.0175 79.0645C70.9942 79.0247 70.9942 78.9753 71.0175 78.9355C71.0446 78.8894 71.1608 78.8603 71.3932 78.8022L72.371 78.5578C72.7162 78.4715 72.8888 78.4283 73.0292 78.3384C73.1535 78.259 73.259 78.1535 73.3384 78.0292C73.4283 77.8888 73.4715 77.7162 73.5578 77.371L73.8022 76.3932Z" fill="white"/>
<path d="M115.944 78.756C115.448 78.756 114.944 78.804 114.432 78.9C113.936 78.98 113.48 79.14 113.064 79.38C112.664 79.604 112.336 79.916 112.08 80.316C111.824 80.7 111.696 81.188 111.696 81.78C111.696 82.26 111.776 82.676 111.936 83.028C112.112 83.364 112.344 83.66 112.632 83.916C112.92 84.156 113.248 84.356 113.616 84.516C114 84.676 114.4 84.812 114.816 84.924C115.456 85.1 116.08 85.26 116.688 85.404C117.296 85.532 117.928 85.684 118.584 85.86C119.08 86.004 119.544 86.18 119.976 86.388C120.408 86.596 120.784 86.86 121.104 87.18C121.424 87.484 121.672 87.852 121.848 88.284C122.04 88.7 122.136 89.188 122.136 89.748C122.136 90.644 121.976 91.412 121.656 92.052C121.336 92.676 120.904 93.188 120.36 93.588C119.832 93.972 119.208 94.252 118.488 94.428C117.768 94.604 117 94.692 116.184 94.692C115.432 94.692 114.704 94.62 114 94.476C113.296 94.332 112.64 94.092 112.032 93.756C111.44 93.42 110.92 92.988 110.472 92.46C110.024 91.916 109.696 91.252 109.488 90.468H111.168C111.376 90.996 111.664 91.444 112.032 91.812C112.4 92.164 112.816 92.452 113.28 92.676C113.76 92.884 114.256 93.036 114.768 93.132C115.296 93.228 115.824 93.276 116.352 93.276C116.848 93.276 117.344 93.22 117.84 93.108C118.336 92.996 118.784 92.82 119.184 92.58C119.584 92.324 119.904 91.996 120.144 91.596C120.4 91.196 120.528 90.708 120.528 90.132C120.528 89.668 120.448 89.276 120.288 88.956C120.128 88.62 119.912 88.332 119.64 88.092C119.368 87.852 119.048 87.66 118.68 87.516C118.312 87.356 117.92 87.228 117.504 87.132C116.864 86.972 116.232 86.828 115.608 86.7C115 86.572 114.376 86.42 113.736 86.244C112.648 85.956 111.76 85.468 111.072 84.78C110.4 84.092 110.064 83.156 110.064 81.972C110.064 81.108 110.224 80.388 110.544 79.812C110.88 79.22 111.32 78.74 111.864 78.372C112.424 78.004 113.056 77.74 113.76 77.58C114.464 77.42 115.192 77.34 115.944 77.34C116.632 77.34 117.296 77.42 117.936 77.58C118.576 77.724 119.152 77.964 119.664 78.3C120.192 78.62 120.632 79.044 120.984 79.572C121.336 80.084 121.56 80.716 121.656 81.468H120.072C119.976 80.94 119.792 80.508 119.52 80.172C119.264 79.82 118.944 79.54 118.56 79.332C118.192 79.124 117.784 78.98 117.336 78.9C116.888 78.804 116.424 78.756 115.944 78.756ZM128.192 81.852H132.248V83.196H128.192V90.324C128.192 90.692 128.208 91.052 128.24 91.404C128.288 91.756 128.384 92.076 128.528 92.364C128.672 92.636 128.88 92.86 129.152 93.036C129.44 93.212 129.824 93.3 130.304 93.3C130.608 93.3 130.912 93.26 131.216 93.18C131.536 93.084 131.792 92.948 131.984 92.772L132.608 93.9C132.24 94.188 131.848 94.388 131.432 94.5C131.032 94.596 130.584 94.644 130.088 94.644C129.432 94.644 128.88 94.548 128.432 94.356C127.984 94.164 127.624 93.9 127.352 93.564C127.08 93.212 126.888 92.788 126.776 92.292C126.664 91.78 126.608 91.212 126.608 90.588V83.196H124.472V81.852H126.608V78.228H128.192V81.852ZM143.398 92.676C142.79 93.412 142.094 93.924 141.31 94.212C140.542 94.5 139.694 94.644 138.766 94.644C138.206 94.644 137.662 94.58 137.134 94.452C136.622 94.308 136.158 94.084 135.742 93.78C135.326 93.476 134.99 93.092 134.734 92.628C134.494 92.148 134.374 91.612 134.374 91.02C134.374 90.3 134.51 89.7 134.782 89.22C135.054 88.74 135.406 88.356 135.838 88.068C136.286 87.78 136.798 87.58 137.374 87.468C137.95 87.34 138.55 87.276 139.174 87.276H143.326C143.326 86.7 143.262 86.156 143.134 85.644C143.022 85.132 142.83 84.684 142.558 84.3C142.286 83.916 141.926 83.612 141.478 83.388C141.046 83.164 140.51 83.052 139.87 83.052C139.566 83.052 139.254 83.076 138.934 83.124C138.63 83.172 138.334 83.252 138.046 83.364C137.774 83.476 137.518 83.636 137.278 83.844C137.054 84.036 136.87 84.276 136.726 84.564H134.998C135.142 84.036 135.382 83.596 135.718 83.244C136.054 82.876 136.446 82.58 136.894 82.356C137.358 82.116 137.846 81.948 138.358 81.852C138.886 81.756 139.406 81.708 139.918 81.708C140.846 81.708 141.63 81.86 142.27 82.164C142.91 82.468 143.422 82.892 143.806 83.436C144.206 83.964 144.486 84.588 144.646 85.308C144.822 86.028 144.91 86.804 144.91 87.636V94.5H143.614L143.398 92.676ZM139.99 88.548C139.574 88.548 139.126 88.564 138.646 88.596C138.182 88.628 137.75 88.724 137.35 88.884C136.95 89.028 136.614 89.26 136.342 89.58C136.086 89.884 135.958 90.308 135.958 90.852C135.958 91.284 136.038 91.652 136.198 91.956C136.374 92.26 136.598 92.516 136.87 92.724C137.158 92.932 137.478 93.084 137.83 93.18C138.198 93.276 138.574 93.324 138.958 93.324C139.582 93.324 140.158 93.244 140.686 93.084C141.23 92.924 141.694 92.684 142.078 92.364C142.478 92.028 142.782 91.62 142.99 91.14C143.214 90.644 143.326 90.068 143.326 89.412V88.548H139.99ZM148.33 94.5V81.852H149.866L149.914 84.036C150.202 83.556 150.522 83.164 150.874 82.86C151.242 82.556 151.642 82.316 152.074 82.14C152.506 81.964 152.962 81.852 153.442 81.804C153.922 81.74 154.426 81.716 154.954 81.732V83.172H154.522C153.754 83.172 153.09 83.292 152.53 83.532C151.97 83.756 151.506 84.068 151.138 84.468C150.626 84.996 150.29 85.588 150.13 86.244C149.986 86.9 149.914 87.588 149.914 88.308V94.5H148.33ZM157.212 94.5V77.532H158.796V94.5H157.212ZM163.235 77.292C163.587 77.292 163.875 77.396 164.099 77.604C164.323 77.812 164.435 78.092 164.435 78.444C164.435 78.812 164.323 79.1 164.099 79.308C163.875 79.516 163.587 79.62 163.235 79.62C162.883 79.62 162.595 79.516 162.371 79.308C162.163 79.1 162.059 78.812 162.059 78.444C162.059 78.076 162.163 77.796 162.371 77.604C162.595 77.396 162.883 77.292 163.235 77.292ZM162.443 81.852H164.027V94.5H162.443V81.852ZM177.457 81.852H178.945V94.092C178.945 95.148 178.841 96.044 178.633 96.78C178.425 97.532 178.089 98.172 177.625 98.7C177.177 99.244 176.585 99.66 175.849 99.948C175.129 100.236 174.257 100.38 173.233 100.38C172.609 100.38 172.017 100.316 171.457 100.188C170.897 100.076 170.385 99.884 169.921 99.612C169.473 99.34 169.081 98.988 168.745 98.556C168.425 98.14 168.185 97.628 168.025 97.02H169.657C169.785 97.404 169.977 97.724 170.233 97.98C170.505 98.236 170.809 98.436 171.145 98.58C171.481 98.74 171.833 98.852 172.201 98.916C172.585 98.996 172.961 99.036 173.329 99.036C174.145 99.036 174.809 98.908 175.321 98.652C175.849 98.412 176.257 98.068 176.545 97.62C176.849 97.172 177.057 96.644 177.169 96.036C177.297 95.444 177.361 94.788 177.361 94.068V92.484C176.833 93.252 176.177 93.804 175.393 94.14C174.625 94.476 173.761 94.644 172.801 94.644C171.793 94.644 170.921 94.46 170.185 94.092C169.465 93.724 168.881 93.228 168.433 92.604C168.001 91.98 167.681 91.26 167.473 90.444C167.281 89.612 167.201 88.748 167.233 87.852C167.249 86.972 167.385 86.164 167.641 85.428C167.913 84.676 168.289 84.028 168.769 83.484C169.249 82.924 169.849 82.492 170.569 82.188C171.289 81.868 172.113 81.708 173.041 81.708C173.921 81.708 174.737 81.86 175.489 82.164C176.241 82.468 176.865 82.964 177.361 83.652L177.457 81.852ZM173.017 83.052C172.265 83.052 171.625 83.196 171.097 83.484C170.569 83.756 170.137 84.132 169.801 84.612C169.465 85.076 169.217 85.612 169.057 86.22C168.897 86.828 168.817 87.468 168.817 88.14C168.817 88.844 168.889 89.508 169.033 90.132C169.193 90.756 169.441 91.3 169.777 91.764C170.113 92.228 170.545 92.604 171.073 92.892C171.617 93.164 172.281 93.3 173.065 93.3C173.769 93.3 174.401 93.148 174.961 92.844C175.537 92.524 176.009 92.124 176.377 91.644C176.745 91.164 177.009 90.628 177.169 90.036C177.329 89.428 177.409 88.796 177.409 88.14C177.409 87.356 177.281 86.58 177.025 85.812C176.785 85.028 176.337 84.388 175.681 83.892C174.929 83.332 174.041 83.052 173.017 83.052ZM182.408 94.5V77.532H183.992V83.964C184.216 83.58 184.48 83.252 184.784 82.98C185.104 82.708 185.464 82.468 185.864 82.26C186.264 82.068 186.696 81.932 187.16 81.852C187.64 81.756 188.12 81.708 188.6 81.708C189.272 81.708 189.872 81.804 190.4 81.996C190.928 82.188 191.376 82.444 191.744 82.764C192.352 83.276 192.776 83.94 193.016 84.756C193.256 85.572 193.376 86.484 193.376 87.492V94.5H191.792V88.068C191.792 87.316 191.728 86.596 191.6 85.908C191.488 85.204 191.232 84.604 190.832 84.108C190.56 83.788 190.224 83.532 189.824 83.34C189.424 83.148 188.92 83.052 188.312 83.052C187.656 83.052 187.048 83.188 186.488 83.46C185.944 83.716 185.488 84.068 185.12 84.516C184.72 84.996 184.432 85.548 184.256 86.172C184.08 86.796 183.992 87.452 183.992 88.14V94.5H182.408ZM199.559 81.852H203.615V83.196H199.559V90.324C199.559 90.692 199.575 91.052 199.607 91.404C199.655 91.756 199.751 92.076 199.895 92.364C200.039 92.636 200.247 92.86 200.519 93.036C200.807 93.212 201.191 93.3 201.671 93.3C201.975 93.3 202.279 93.26 202.583 93.18C202.903 93.084 203.159 92.948 203.351 92.772L203.975 93.9C203.607 94.188 203.215 94.388 202.799 94.5C202.399 94.596 201.951 94.644 201.455 94.644C200.799 94.644 200.247 94.548 199.799 94.356C199.351 94.164 198.991 93.9 198.719 93.564C198.447 93.212 198.255 92.788 198.143 92.292C198.031 91.78 197.975 91.212 197.975 90.588V83.196H195.839V81.852H197.975V78.228H199.559V81.852ZM213.098 77.532H218.954C219.69 77.532 220.386 77.588 221.042 77.7C221.714 77.796 222.298 77.996 222.794 78.3C223.306 78.604 223.714 79.028 224.018 79.572C224.322 80.116 224.474 80.828 224.474 81.708C224.474 82.668 224.234 83.484 223.754 84.156C223.29 84.812 222.61 85.284 221.714 85.572C222.866 85.764 223.762 86.236 224.402 86.988C225.058 87.74 225.386 88.708 225.386 89.892C225.386 90.836 225.186 91.604 224.786 92.196C224.402 92.788 223.898 93.26 223.274 93.612C222.65 93.948 221.946 94.18 221.162 94.308C220.378 94.436 219.594 94.5 218.81 94.5H213.098V77.532ZM214.658 78.972V85.116H218.45C218.994 85.116 219.53 85.068 220.058 84.972C220.602 84.86 221.09 84.676 221.522 84.42C221.954 84.164 222.306 83.828 222.578 83.412C222.85 82.98 222.986 82.444 222.986 81.804C222.986 81.18 222.874 80.684 222.65 80.316C222.426 79.932 222.122 79.644 221.738 79.452C221.37 79.26 220.946 79.132 220.466 79.068C219.986 79.004 219.49 78.972 218.978 78.972H214.658ZM218.738 93.06C219.314 93.06 219.898 93.028 220.49 92.964C221.098 92.9 221.642 92.764 222.122 92.556C222.618 92.332 223.018 92.004 223.322 91.572C223.642 91.14 223.802 90.548 223.802 89.796C223.802 89.14 223.674 88.604 223.418 88.188C223.178 87.772 222.858 87.444 222.458 87.204C222.058 86.964 221.594 86.796 221.066 86.7C220.538 86.604 220.002 86.556 219.458 86.556H214.658V93.06H218.738ZM228.416 94.5V81.852H229.952L230 84.036C230.288 83.556 230.608 83.164 230.96 82.86C231.328 82.556 231.728 82.316 232.16 82.14C232.592 81.964 233.048 81.852 233.528 81.804C234.008 81.74 234.512 81.716 235.04 81.732V83.172H234.608C233.84 83.172 233.176 83.292 232.616 83.532C232.056 83.756 231.592 84.068 231.224 84.468C230.712 84.996 230.376 85.588 230.215 86.244C230.072 86.9 230 87.588 230 88.308V94.5H228.416ZM242.56 81.708C243.552 81.708 244.416 81.868 245.152 82.188C245.904 82.508 246.528 82.956 247.024 83.532C247.536 84.108 247.92 84.796 248.176 85.596C248.432 86.38 248.56 87.244 248.56 88.188C248.56 89.132 248.432 90.004 248.176 90.804C247.92 91.588 247.536 92.268 247.024 92.844C246.528 93.404 245.904 93.844 245.152 94.164C244.416 94.484 243.552 94.644 242.56 94.644C241.568 94.644 240.696 94.484 239.944 94.164C239.208 93.844 238.584 93.404 238.072 92.844C237.576 92.268 237.2 91.588 236.944 90.804C236.704 90.004 236.584 89.132 236.584 88.188C236.584 87.244 236.704 86.38 236.944 85.596C237.2 84.796 237.576 84.108 238.072 83.532C238.584 82.956 239.208 82.508 239.944 82.188C240.696 81.868 241.568 81.708 242.56 81.708ZM242.56 93.3C243.328 93.3 243.992 93.172 244.552 92.916C245.112 92.644 245.568 92.276 245.92 91.812C246.288 91.348 246.552 90.804 246.712 90.18C246.888 89.556 246.976 88.892 246.976 88.188C246.976 87.484 246.888 86.82 246.712 86.196C246.552 85.572 246.288 85.028 245.92 84.564C245.568 84.1 245.112 83.732 244.552 83.46C243.992 83.188 243.328 83.052 242.56 83.052C241.792 83.052 241.128 83.188 240.568 83.46C240.008 83.732 239.544 84.1 239.176 84.564C238.824 85.028 238.56 85.572 238.384 86.196C238.224 86.82 238.144 87.484 238.144 88.188C238.144 88.892 238.224 89.556 238.384 90.18C238.56 90.804 238.824 91.348 239.176 91.812C239.544 92.276 240.008 92.644 240.568 92.916C241.128 93.172 241.792 93.3 242.56 93.3ZM264.101 93.18L267.245 81.852H269.045L265.205 94.5H262.973L259.661 83.124L256.349 94.5H254.093L250.205 81.852H252.005L255.221 93.18L258.437 81.852H260.885L264.101 93.18ZM275.629 83.052C275.261 83.052 274.885 83.084 274.501 83.148C274.133 83.212 273.797 83.324 273.493 83.484C273.189 83.628 272.933 83.836 272.725 84.108C272.533 84.38 272.437 84.732 272.437 85.164C272.437 85.5 272.501 85.788 272.629 86.028C272.773 86.268 272.949 86.468 273.157 86.628C273.381 86.788 273.629 86.916 273.901 87.012C274.173 87.108 274.453 87.188 274.741 87.252C275.253 87.364 275.757 87.468 276.253 87.564C276.749 87.66 277.253 87.772 277.765 87.9C278.613 88.076 279.301 88.412 279.829 88.908C280.373 89.404 280.645 90.116 280.645 91.044C280.645 91.748 280.493 92.332 280.189 92.796C279.901 93.26 279.525 93.636 279.061 93.924C278.597 94.196 278.069 94.388 277.477 94.5C276.885 94.596 276.293 94.644 275.701 94.644C275.157 94.644 274.605 94.588 274.045 94.476C273.485 94.364 272.965 94.188 272.485 93.948C272.005 93.692 271.589 93.364 271.237 92.964C270.885 92.564 270.645 92.06 270.517 91.452H272.125C272.301 91.82 272.517 92.124 272.773 92.364C273.045 92.588 273.341 92.772 273.661 92.916C273.981 93.044 274.317 93.14 274.669 93.204C275.037 93.268 275.405 93.3 275.773 93.3C276.141 93.3 276.517 93.276 276.901 93.228C277.301 93.18 277.661 93.084 277.981 92.94C278.301 92.78 278.565 92.556 278.773 92.268C278.981 91.98 279.085 91.604 279.085 91.14C279.085 90.82 279.021 90.548 278.893 90.324C278.765 90.1 278.597 89.916 278.389 89.772C278.181 89.628 277.941 89.516 277.669 89.436C277.413 89.34 277.149 89.26 276.877 89.196C276.381 89.084 275.893 88.988 275.413 88.908C274.933 88.812 274.437 88.7 273.925 88.572C273.045 88.364 272.317 87.996 271.741 87.468C271.165 86.924 270.877 86.172 270.877 85.212C270.877 84.524 271.021 83.956 271.309 83.508C271.597 83.06 271.965 82.708 272.413 82.452C272.877 82.18 273.397 81.988 273.973 81.876C274.549 81.764 275.117 81.708 275.677 81.708C276.173 81.708 276.669 81.764 277.165 81.876C277.677 81.972 278.141 82.14 278.557 82.38C278.973 82.62 279.325 82.932 279.613 83.316C279.917 83.7 280.117 84.164 280.213 84.708H278.749C278.637 84.42 278.469 84.172 278.245 83.964C278.021 83.74 277.765 83.564 277.477 83.436C277.189 83.308 276.885 83.212 276.565 83.148C276.245 83.084 275.933 83.052 275.629 83.052ZM284.503 88.692C284.535 89.364 284.647 89.98 284.839 90.54C285.047 91.1 285.335 91.588 285.703 92.004C286.071 92.404 286.519 92.724 287.047 92.964C287.591 93.188 288.223 93.3 288.943 93.3C289.279 93.3 289.615 93.268 289.951 93.204C290.303 93.14 290.631 93.044 290.935 92.916C291.255 92.772 291.543 92.588 291.799 92.364C292.055 92.14 292.255 91.86 292.399 91.524H294.055C293.879 92.084 293.607 92.564 293.239 92.964C292.887 93.364 292.479 93.692 292.015 93.948C291.551 94.188 291.047 94.364 290.503 94.476C289.959 94.588 289.415 94.644 288.871 94.644C287.879 94.644 287.007 94.484 286.255 94.164C285.519 93.844 284.903 93.404 284.407 92.844C283.911 92.268 283.543 91.588 283.303 90.804C283.063 90.004 282.943 89.132 282.943 88.188C282.943 87.228 283.071 86.348 283.327 85.548C283.583 84.748 283.959 84.068 284.455 83.508C284.967 82.932 285.591 82.492 286.327 82.188C287.079 81.868 287.935 81.708 288.895 81.708C289.903 81.708 290.751 81.908 291.439 82.308C292.143 82.708 292.711 83.236 293.143 83.892C293.575 84.532 293.879 85.276 294.055 86.124C294.247 86.956 294.327 87.812 294.295 88.692H284.503ZM292.687 87.372C292.671 86.796 292.575 86.244 292.399 85.716C292.239 85.188 291.991 84.732 291.655 84.348C291.335 83.948 290.927 83.636 290.431 83.412C289.935 83.172 289.359 83.052 288.703 83.052C288.047 83.052 287.463 83.172 286.951 83.412C286.455 83.652 286.031 83.972 285.679 84.372C285.327 84.772 285.055 85.236 284.863 85.764C284.671 86.276 284.559 86.812 284.527 87.372H292.687ZM297.275 94.5V81.852H298.811L298.859 84.036C299.147 83.556 299.467 83.164 299.819 82.86C300.187 82.556 300.587 82.316 301.019 82.14C301.451 81.964 301.907 81.852 302.387 81.804C302.867 81.74 303.371 81.716 303.899 81.732V83.172H303.467C302.699 83.172 302.035 83.292 301.475 83.532C300.915 83.756 300.451 84.068 300.083 84.468C299.571 84.996 299.235 85.588 299.075 86.244C298.931 86.9 298.859 87.588 298.859 88.308V94.5H297.275Z" fill="white"/>
<rect x="49.5" y="60.5" width="276" height="53" rx="26.5" stroke="white" shape-rendering="crispEdges"/>
</g>
<defs>
<filter id="filter0_d_12_251" x="-3" y="0" width="397" height="174" filterUnits="userSpaceOnUse" color-interpolation-filters="sRGB">
<feFlood flood-opacity="0" result="BackgroundImageFix"/>
<feColorMatrix in="SourceAlpha" type="matrix" values="0 0 0 0 0 0 0 0 0 0 0 0 0 0 0 0 0 0 127 0" result="hardAlpha"/>
<feOffset dx="8"/>
<feGaussianBlur stdDeviation="30"/>
<feComposite in2="hardAlpha" operator="out"/>
<feColorMatrix type="matrix" values="0 0 0 0 0.00804394 0 0 0 0 0.579167 0 0 0 0 0.0198196 0 0 0 0.74 0"/>
<feBlend mode="normal" in2="BackgroundImageFix" result="effect1_dropShadow_12_251"/>
<feBlend mode="normal" in="SourceGraphic" in2="effect1_dropShadow_12_251" result="shape"/>
</filter>
<linearGradient id="paint0_linear_12_251" x1="18.3388" y1="13.16" x2="249.599" y2="260.81" gradientUnits="userSpaceOnUse">
<stop stop-color="#095209"/>
<stop offset="1" stop-color="#068006" stop-opacity="0"/>
</linearGradient>
</defs>
</svg>
