<svg width="74" height="40" viewBox="0 0 74 40" fill="none" xmlns="http://www.w3.org/2000/svg">
<g filter="url(#filter0_b_1_1175)">
<rect x="1" y="1" width="72" height="38" rx="19" fill="black" fill-opacity="0.4"/>
<path d="M14 24L10 20L14 16" stroke="white" stroke-width="1.5" stroke-linecap="square" stroke-linejoin="round"/>
<path d="M24.392 25V13.688H26.504L29.896 19.912L33.24 13.688H35.304V25H33.912V15.16L30.184 22.04H29.544L25.784 15.16V25H24.392ZM38.8311 21.288C38.8631 21.6613 38.9378 22.008 39.0551 22.328C39.1831 22.6373 39.3538 22.9093 39.5671 23.144C39.7805 23.3787 40.0418 23.5653 40.3511 23.704C40.6711 23.832 41.0391 23.896 41.4551 23.896C41.6578 23.896 41.8658 23.88 42.0791 23.848C42.3031 23.8053 42.5111 23.7413 42.7031 23.656C42.8951 23.56 43.0658 23.4373 43.2151 23.288C43.3645 23.1387 43.4765 22.9573 43.5511 22.744H44.9431C44.8471 23.1493 44.6818 23.5013 44.4471 23.8C44.2231 24.0987 43.9511 24.344 43.6311 24.536C43.3218 24.728 42.9751 24.872 42.5911 24.968C42.2071 25.0533 41.8178 25.096 41.4231 25.096C40.7511 25.096 40.1645 24.9893 39.6631 24.776C39.1725 24.5627 38.7618 24.2693 38.4311 23.896C38.1005 23.512 37.8551 23.0587 37.6951 22.536C37.5351 22.0027 37.4551 21.4213 37.4551 20.792C37.4551 20.1627 37.5405 19.5867 37.7111 19.064C37.8925 18.5307 38.1485 18.072 38.4791 17.688C38.8098 17.304 39.2151 17.0053 39.6951 16.792C40.1751 16.5787 40.7458 16.472 41.4071 16.472C42.0791 16.472 42.6605 16.6053 43.1511 16.872C43.6418 17.1387 44.0365 17.4907 44.3351 17.928C44.6338 18.3547 44.8418 18.8187 44.9591 19.32C45.0871 19.8213 45.1405 20.2853 45.1191 20.712C45.1191 20.808 45.1138 20.904 45.1031 21C45.1031 21.096 45.0978 21.192 45.0871 21.288H38.8311ZM43.7431 20.104C43.7218 19.3893 43.4978 18.808 43.0711 18.36C42.6445 17.912 42.0738 17.688 41.3591 17.688C40.9645 17.688 40.6178 17.752 40.3191 17.88C40.0205 18.008 39.7698 18.184 39.5671 18.408C39.3645 18.632 39.2045 18.8933 39.0871 19.192C38.9698 19.48 38.8951 19.784 38.8631 20.104H43.7431ZM46.947 25V16.568H48.259L48.323 17.848C48.4617 17.6133 48.6323 17.4107 48.835 17.24C49.0483 17.0693 49.2777 16.9253 49.523 16.808C49.7683 16.6907 50.0243 16.6053 50.291 16.552C50.5683 16.4987 50.835 16.472 51.091 16.472C51.699 16.472 52.211 16.5733 52.627 16.776C53.043 16.968 53.3737 17.24 53.619 17.592C53.8643 17.9333 54.0403 18.344 54.147 18.824C54.2537 19.2933 54.307 19.8 54.307 20.344V25H52.947V20.712C52.947 20.3173 52.9203 19.9387 52.867 19.576C52.8243 19.2133 52.7283 18.8933 52.579 18.616C52.4403 18.328 52.2377 18.0987 51.971 17.928C51.7043 17.7573 51.347 17.672 50.899 17.672C50.4617 17.6827 50.0723 17.7893 49.731 17.992C49.4003 18.1947 49.1337 18.4347 48.931 18.712C48.6857 19.064 48.5203 19.4533 48.435 19.88C48.3497 20.296 48.307 20.7173 48.307 21.144V25H46.947ZM59.9201 23.896C60.6881 23.896 61.2481 23.6667 61.6001 23.208C61.9628 22.7387 62.1441 22.088 62.1441 21.256V16.568H63.5041V21.32C63.5041 22.6 63.1948 23.5493 62.5761 24.168C61.9681 24.7867 61.0828 25.096 59.9201 25.096C58.7575 25.096 57.8721 24.7867 57.2641 24.168C56.6668 23.5493 56.3681 22.6 56.3681 21.32V16.568H57.7281V21.256C57.7281 22.088 57.9095 22.7387 58.2721 23.208C58.6348 23.6667 59.1841 23.896 59.9201 23.896Z" fill="white"/>
<rect x="0.5" y="0.5" width="73" height="39" rx="19.5" stroke="white" stroke-opacity="0.7"/>
</g>
<defs>
<filter id="filter0_b_1_1175" x="-30" y="-30" width="134" height="100" filterUnits="userSpaceOnUse" color-interpolation-filters="sRGB">
<feFlood flood-opacity="0" result="BackgroundImageFix"/>
<feGaussianBlur in="BackgroundImageFix" stdDeviation="15"/>
<feComposite in2="SourceAlpha" operator="in" result="effect1_backgroundBlur_1_1175"/>
<feBlend mode="normal" in="SourceGraphic" in2="effect1_backgroundBlur_1_1175" result="shape"/>
</filter>
</defs>
</svg>
