<svg width="37" height="37" viewBox="0 0 37 37" fill="none" xmlns="http://www.w3.org/2000/svg">
<path d="M17.2803 2.42475C17.6386 0.991531 17.8178 0.27492 18.1025 0.107933C18.348 -0.0359776 18.652 -0.0359778 18.8975 0.107933C19.1822 0.27492 19.3614 0.991533 19.7197 2.42476L21.2272 8.4546C21.7593 10.5832 22.0254 11.6476 22.5796 12.5136C23.0698 13.2797 23.7203 13.9302 24.4864 14.4204C25.3524 14.9746 26.4168 15.2407 28.5454 15.7728L34.5752 17.2803C36.0085 17.6386 36.7251 17.8178 36.8921 18.1025C37.036 18.348 37.036 18.652 36.8921 18.8975C36.7251 19.1822 36.0085 19.3614 34.5752 19.7197L28.5454 21.2272C26.4168 21.7593 25.3524 22.0254 24.4864 22.5796C23.7203 23.0698 23.0698 23.7203 22.5796 24.4864C22.0254 25.3524 21.7593 26.4168 21.2272 28.5454L19.7197 34.5753C19.3614 36.0085 19.1822 36.7251 18.8975 36.8921C18.652 37.036 18.348 37.036 18.1025 36.8921C17.8178 36.7251 17.6386 36.0085 17.2803 34.5752L15.7728 28.5454C15.2407 26.4168 14.9746 25.3524 14.4204 24.4864C13.9302 23.7203 13.2797 23.0698 12.5136 22.5796C11.6476 22.0254 10.5832 21.7593 8.4546 21.2272L2.42475 19.7197C0.991532 19.3614 0.27492 19.1822 0.107933 18.8975C-0.0359778 18.652 -0.0359776 18.348 0.107933 18.1025C0.27492 17.8178 0.991533 17.6386 2.42476 17.2803L8.4546 15.7728C10.5832 15.2407 11.6476 14.9746 12.5136 14.4204C13.2797 13.9302 13.9302 13.2797 14.4204 12.5136C14.9746 11.6476 15.2407 10.5832 15.7728 8.4546L17.2803 2.42475Z" fill="white"/>
<path d="M17.2803 2.42475C17.6386 0.991531 17.8178 0.27492 18.1025 0.107933C18.348 -0.0359776 18.652 -0.0359778 18.8975 0.107933C19.1822 0.27492 19.3614 0.991533 19.7197 2.42476L21.2272 8.4546C21.7593 10.5832 22.0254 11.6476 22.5796 12.5136C23.0698 13.2797 23.7203 13.9302 24.4864 14.4204C25.3524 14.9746 26.4168 15.2407 28.5454 15.7728L34.5752 17.2803C36.0085 17.6386 36.7251 17.8178 36.8921 18.1025C37.036 18.348 37.036 18.652 36.8921 18.8975C36.7251 19.1822 36.0085 19.3614 34.5752 19.7197L28.5454 21.2272C26.4168 21.7593 25.3524 22.0254 24.4864 22.5796C23.7203 23.0698 23.0698 23.7203 22.5796 24.4864C22.0254 25.3524 21.7593 26.4168 21.2272 28.5454L19.7197 34.5753C19.3614 36.0085 19.1822 36.7251 18.8975 36.8921C18.652 37.036 18.348 37.036 18.1025 36.8921C17.8178 36.7251 17.6386 36.0085 17.2803 34.5752L15.7728 28.5454C15.2407 26.4168 14.9746 25.3524 14.4204 24.4864C13.9302 23.7203 13.2797 23.0698 12.5136 22.5796C11.6476 22.0254 10.5832 21.7593 8.4546 21.2272L2.42475 19.7197C0.991532 19.3614 0.27492 19.1822 0.107933 18.8975C-0.0359778 18.652 -0.0359776 18.348 0.107933 18.1025C0.27492 17.8178 0.991533 17.6386 2.42476 17.2803L8.4546 15.7728C10.5832 15.2407 11.6476 14.9746 12.5136 14.4204C13.2797 13.9302 13.9302 13.2797 14.4204 12.5136C14.9746 11.6476 15.2407 10.5832 15.7728 8.4546L17.2803 2.42475Z" fill="white"/>
</svg>
