<svg width="53" height="53" viewBox="0 0 53 53" fill="none" xmlns="http://www.w3.org/2000/svg">
<path d="M24.8188 4.34223C25.3127 2.36671 25.5596 1.37894 25.9521 1.14877C26.2904 0.950409 26.7095 0.950409 27.0478 1.14877C27.4404 1.37894 27.6873 2.36671 28.1812 4.34223L30.2591 12.6536C30.9926 15.5877 31.3593 17.0547 32.1232 18.2485C32.7989 19.3044 33.6956 20.2011 34.7515 20.8768C35.9453 21.6407 37.4123 22.0074 40.3464 22.7409L48.6578 24.8188C50.6333 25.3127 51.6211 25.5596 51.8512 25.9522C52.0496 26.2904 52.0496 26.7095 51.8512 27.0478C51.6211 27.4404 50.6333 27.6873 48.6578 28.1812L40.3464 30.2591C37.4123 30.9926 35.9453 31.3593 34.7515 32.1232C33.6956 32.7989 32.7989 33.6956 32.1232 34.7515C31.3593 35.9453 30.9926 37.4123 30.2591 40.3464L28.1812 48.6578C27.6873 50.6333 27.4404 51.6211 27.0479 51.8512C26.7096 52.0496 26.2905 52.0496 25.9522 51.8512C25.5596 51.6211 25.3127 50.6333 24.8188 48.6578L22.7409 40.3464C22.0074 37.4123 21.6407 35.9453 20.8768 34.7515C20.2011 33.6956 19.3044 32.7989 18.2485 32.1232C17.0547 31.3593 15.5877 30.9926 12.6536 30.2591L4.34223 28.1812C2.36671 27.6873 1.37894 27.4404 1.14877 27.0478C0.950409 26.7095 0.950409 26.2905 1.14877 25.9522C1.37894 25.5596 2.36671 25.3127 4.34223 24.8188L12.6536 22.7409C15.5877 22.0074 17.0547 21.6407 18.2485 20.8768C19.3044 20.2011 20.2011 19.3044 20.8768 18.2485C21.6407 17.0547 22.0074 15.5877 22.7409 12.6536L24.8188 4.34223Z" stroke="white" stroke-linecap="round" stroke-linejoin="round"/>
</svg>
